<?xml version="1.0" encoding="UTF-8" standalone="no"?>
<!-- Created with Sodipodi ("http://www.sodipodi.com/") -->
<svg
   xmlns:dc="http://purl.org/dc/elements/1.1/"
   xmlns:cc="http://creativecommons.org/ns#"
   xmlns:rdf="http://www.w3.org/1999/02/22-rdf-syntax-ns#"
   xmlns:svg="http://www.w3.org/2000/svg"
   xmlns="http://www.w3.org/2000/svg"
   xmlns:xlink="http://www.w3.org/1999/xlink"
   xmlns:sodipodi="http://sodipodi.sourceforge.net/DTD/sodipodi-0.dtd"
   xmlns:inkscape="http://www.inkscape.org/namespaces/inkscape"
   xml:space="preserve"
   width="128pt"
   height="128pt"
   viewBox="0 0 507.946 507.946"
   id="svg49"
   sodipodi:version="0.32"
   sodipodi:docname="terminal.svg"
   sodipodi:docbase="/mnt/windows/themes/Work/Blue-Sphere/"
   inkscape:version="0.46"
   inkscape:output_extension="org.inkscape.output.svg.inkscape"><sodipodi:namedview
   id="base"
   showgrid="false"
   showguides="true"
   inkscape:guide-bbox="true"
   inkscape:zoom="1.1490485"
   inkscape:cx="113.67803"
   inkscape:cy="68.193107"
   inkscape:window-width="1155"
   inkscape:window-height="894"
   inkscape:window-x="66"
   inkscape:window-y="66"
   inkscape:current-layer="svg49">
    
    
    
    
    
  <sodipodi:guide
   orientation="1,0"
   position="183.69231,85.384615"
   id="guide7556" /><sodipodi:guide
   orientation="1,0"
   position="237.53846,78.769231"
   id="guide7560" /><sodipodi:guide
   orientation="1,0"
   position="273.38462,71.538462"
   id="guide7572" /><sodipodi:guide
   orientation="1,0"
   position="243.23077,69.692308"
   id="guide7574" /></sodipodi:namedview><metadata
   id="metadata77"><rdf:RDF><cc:Work
       rdf:about=""><dc:format>image/svg+xml</dc:format><dc:type
         rdf:resource="http://purl.org/dc/dcmitype/StillImage" /></cc:Work></rdf:RDF></metadata>
  <defs
   id="defs62"><linearGradient
   inkscape:collect="always"
   id="linearGradient7886"><stop
     style="stop-color:#1a1a1a;stop-opacity:1;"
     offset="0"
     id="stop7888" /><stop
     style="stop-color:#1a1a1a;stop-opacity:0;"
     offset="1"
     id="stop7890" /></linearGradient><linearGradient
   id="linearGradient7878">
      <stop
   offset="0.000000"
   style="stop-color:#4d4d4d;stop-opacity:1"
   id="stop7880" />
      <stop
   offset="1.000000"
   style="stop-color:#1a1a1a;stop-opacity:1"
   id="stop7882" />
    </linearGradient><linearGradient
   inkscape:collect="always"
   id="linearGradient7870"><stop
     style="stop-color:#cccccc;stop-opacity:1"
     offset="0"
     id="stop7872" /><stop
     style="stop-color:#999999;stop-opacity:1"
     offset="1"
     id="stop7874" /></linearGradient><linearGradient
   id="linearGradient6809"
   inkscape:collect="always"><stop
     id="stop6811"
     offset="0"
     style="stop-color:#11212a;stop-opacity:1;" /><stop
     style="stop-color:#9fb8c3;stop-opacity:1"
     offset="0.50537366"
     id="stop6813" /><stop
     id="stop6815"
     offset="1"
     style="stop-color:#11212a;stop-opacity:1" /></linearGradient><linearGradient
   id="linearGradient6597"
   inkscape:collect="always"><stop
     id="stop6599"
     offset="0"
     style="stop-color:#11212a;stop-opacity:1;" /><stop
     id="stop6601"
     offset="1"
     style="stop-color:#11212a;stop-opacity:0;" /></linearGradient><linearGradient
   id="linearGradient5153">
      <stop
   offset="0.000000"
   style="stop-color:#000080;stop-opacity:0.40000001"
   id="stop5155" />
      <stop
   offset="1.000000"
   style="stop-color:#1a1a1a;stop-opacity:1"
   id="stop5157" />
    </linearGradient><radialGradient
   id="radialGradient3304"
   cx="218.9404"
   cy="219.7715"
   r="150.7063"
   fx="218.9404"
   fy="219.7715"
   gradientUnits="userSpaceOnUse"
   style="stroke:#000000;stroke-opacity:0.986014;stroke-width:0.981612;">
      <stop
   offset="0"
   style="stop-color:#73ffff;stroke:#000000;stroke-opacity:0.98601399999999995;stroke-width:0.98161200000000004;stop-opacity:0.1627907"
   id="stop3306" />
      <stop
   offset="0.41624108"
   style="stop-color:#2EA6B9;stroke:#000000;stroke-opacity:0.986014;stroke-width:0.981612;"
   id="stop3308" />
      <stop
   offset="1"
   style="stop-color:#006b8b;stroke:#000000;stroke-opacity:0.986014;stroke-width:0.981612;"
   id="stop3310" />
    </radialGradient><inkscape:perspective
   id="perspective79"
   inkscape:persp3d-origin="80 : 53.333333 : 1"
   inkscape:vp_z="160 : 80 : 1"
   inkscape:vp_y="0 : 1000 : 0"
   inkscape:vp_x="0 : 80 : 1"
   sodipodi:type="inkscape:persp3d" />
    <linearGradient
   id="linearGradient262">
      <stop
   id="stop264"
   style="stop-color:#fbddb2;stop-opacity:0.992157;"
   offset="0.000000" />
      <stop
   id="stop263"
   style="stop-color:#efa81a;stop-opacity:0.952941;"
   offset="1.000000" />
    </linearGradient>
    <linearGradient
   id="linearGradient463">
      <stop
   id="stop464"
   style="stop-color:#e7dad5;stop-opacity:0.843137;"
   offset="0.000000" />
      <stop
   id="stop465"
   style="stop-color:#797979;stop-opacity:1;"
   offset="1.000000" />
    </linearGradient>
    <linearGradient
   id="linearGradient460">
      <stop
   id="stop461"
   style="stop-color:#ffffff;stop-opacity:0.466667;"
   offset="0.000000" />
      <stop
   id="stop462"
   style="stop-color:#000000;stop-opacity:1;"
   offset="1.000000" />
    </linearGradient>
    <radialGradient
   style="stroke:#000000;stroke-opacity:0.986014;stroke-width:0.981612;"
   gradientUnits="userSpaceOnUse"
   fy="219.7715"
   fx="218.9404"
   r="150.7063"
   cy="219.7715"
   cx="218.9404"
   id="radialGradient456">
      <stop
   id="stop457"
   style="stop-color:#73ffff;stop-opacity:1;"
   offset="0.000000" />
      <stop
   id="stop458"
   style="stop-color:#1c5574;stop-opacity:1;"
   offset="1.000000" />
    </radialGradient>
    <linearGradient
   id="linearGradient178">
      <stop
   id="stop180"
   style="stop-color:#ffffff;stop-opacity:1;"
   offset="0.000000" />
      <stop
   id="stop179"
   style="stop-color:#000000;stop-opacity:1;"
   offset="1.000000" />
    </linearGradient>
    <linearGradient
   id="linearGradient174">
      <stop
   id="stop176"
   style="stop-color:#ffffff;stop-opacity:1;"
   offset="0.000000" />
      <stop
   id="stop175"
   style="stop-color:#797979;stop-opacity:1;"
   offset="1.000000" />
    </linearGradient>
    <radialGradient
   style="stroke:#000000;stroke-opacity:0.986014;stroke-width:0.981612;"
   gradientUnits="userSpaceOnUse"
   fy="219.7715"
   fx="218.9404"
   r="150.7063"
   cy="219.7715"
   cx="218.9404"
   id="aigrd1">
      <stop
   id="stop53"
   style="stop-color:#73ffff;stroke:#000000;stroke-opacity:0.986014;stroke-width:0.981612;"
   offset="0" />
      <stop
   id="stop54"
   style="stop-color:#2EA6B9;stroke:#000000;stroke-opacity:0.986014;stroke-width:0.981612;"
   offset="0.2809" />
      <stop
   id="stop55"
   style="stop-color:#006b8b;stroke:#000000;stroke-opacity:0.986014;stroke-width:0.981612;"
   offset="1" />
    </radialGradient>
    <linearGradient
   spreadMethod="pad"
   gradientTransform="matrix(10.369895,-4.0409511,10.365043,-0.2595129,-5046.05,1323.75)"
   gradientUnits="userSpaceOnUse"
   y2="289.9357"
   x2="191.1001"
   y1="212.00746"
   x1="274.19534"
   id="linearGradient88"
   xlink:href="#linearGradient463" />
    <radialGradient
   spreadMethod="pad"
   gradientTransform="matrix(8.7596116,-3.3868819,8.7054552,-0.2434445,-4210.75,1156.54)"
   gradientUnits="userSpaceOnUse"
   r="29.977651"
   fy="214.50443"
   fx="193.37885"
   cy="214.50443"
   cx="193.37885"
   id="radialGradient89"
   xlink:href="#aigrd1" />
    <linearGradient
   id="linearGradient177"
   xlink:href="#linearGradient262" />
    <linearGradient
   spreadMethod="pad"
   gradientTransform="matrix(10.369895,-4.0409511,10.365043,-0.2595129,-5068.49,1302.92)"
   gradientUnits="userSpaceOnUse"
   id="linearGradient454"
   xlink:href="#linearGradient7878"
   y2="317.3363"
   x2="193.29597"
   y1="216.33662"
   x1="282.65863" />
    <radialGradient
   spreadMethod="pad"
   gradientTransform="matrix(14.264817,-6.1326653,13.890133,-2.1383154,-6549.2267,2090.2682)"
   gradientUnits="userSpaceOnUse"
   r="41.06672"
   fy="287.42624"
   fx="200.28993"
   cy="287.42624"
   cx="200.28993"
   id="radialGradient455"
   xlink:href="#linearGradient460" />
    <linearGradient
   spreadMethod="pad"
   gradientTransform="matrix(1,0,0,1,2.17824e-07,-9.20448e-09)"
   gradientUnits="objectBoundingBox"
   y2="0"
   x2="1"
   y1="0"
   x1="0"
   id="linearGradient261"
   xlink:href="#linearGradient262" />
  <linearGradient
   gradientTransform="translate(-26.658582,-29.620653)"
   gradientUnits="userSpaceOnUse"
   y2="413.82684"
   x2="295.16074"
   y1="162.05132"
   x1="262.71939"
   id="linearGradient6595"
   xlink:href="#linearGradient5153"
   inkscape:collect="always" /><linearGradient
   gradientUnits="userSpaceOnUse"
   y2="165.0134"
   x2="94.727699"
   y1="260.78682"
   x1="85.136911"
   id="linearGradient6603"
   xlink:href="#linearGradient6597"
   inkscape:collect="always" /><linearGradient
   inkscape:collect="always"
   xlink:href="#linearGradient6809"
   id="linearGradient6807"
   gradientUnits="userSpaceOnUse"
   x1="412.93512"
   y1="370.19809"
   x2="428.93008"
   y2="382.54001" /><filter
   inkscape:collect="always"
   id="filter6865"><feGaussianBlur
     inkscape:collect="always"
     stdDeviation="0.24468881"
     id="feGaussianBlur6867" /></filter><filter
   inkscape:collect="always"
   id="filter6871"><feGaussianBlur
     inkscape:collect="always"
     stdDeviation="0.098435244"
     id="feGaussianBlur6873" /></filter><linearGradient
   inkscape:collect="always"
   xlink:href="#linearGradient178"
   id="linearGradient6905"
   x1="432.54233"
   y1="384.19934"
   x2="412.33755"
   y2="373.58591"
   gradientUnits="userSpaceOnUse" /><linearGradient
   inkscape:collect="always"
   xlink:href="#linearGradient7870"
   id="linearGradient7876"
   x1="114.03758"
   y1="137.79613"
   x2="211.42841"
   y2="427.89664"
   gradientUnits="userSpaceOnUse" /><radialGradient
   inkscape:collect="always"
   xlink:href="#linearGradient7886"
   id="radialGradient7892"
   cx="295.97623"
   cy="489.38644"
   fx="295.97623"
   fy="489.38644"
   r="229.61502"
   gradientTransform="matrix(1,0,0,0.1576761,0,412.22188)"
   gradientUnits="userSpaceOnUse" /></defs>
  <defs
   id="defs22">
    <linearGradient
   id="linearGradient124">
      <stop
   id="stop125"
   style="stop-color:#6ace34;stop-opacity:0.992157;"
   offset="0.000000" />
      <stop
   id="stop126"
   style="stop-color:#3d7a35;stop-opacity:0.952941;"
   offset="1.000000" />
    </linearGradient>
    <linearGradient
   id="linearGradient120">
      <stop
   id="stop121"
   style="stop-color:#f52755;stop-opacity:0.992157;"
   offset="0.000000" />
      <stop
   id="stop122"
   style="stop-color:#a81837;stop-opacity:0.952941;"
   offset="1.000000" />
    </linearGradient>
    <linearGradient
   xlink:href="#linearGradient262"
   y2="0.000000"
   x2="1.000000"
   y1="0.000000"
   x1="0.000000"
   id="linearGradient96" />
    <linearGradient
   id="linearGradient1857">
      <stop
   id="stop1858"
   style="stop-color:#fbddc7;stop-opacity:0.992157;"
   offset="0.000000" />
      <stop
   id="stop1859"
   style="stop-color:#efa81a;stop-opacity:0.952941;"
   offset="1.000000" />
    </linearGradient>
    <linearGradient
   id="linearGradient168">
      <stop
   id="stop169"
   style="stop-color:#cdffff;stop-opacity:1;"
   offset="0.000000" />
      <stop
   id="stop170"
   style="stop-color:#0c5d7d;stop-opacity:0.905882;"
   offset="1.000000" />
    </linearGradient>
    <linearGradient
   id="linearGradient90">
      <stop
   id="stop91"
   style="stop-color:#cdffff;stop-opacity:1;"
   offset="0.000000" />
      <stop
   id="stop92"
   style="stop-color:#006b97;stop-opacity:0.905882;"
   offset="1.000000" />
    </linearGradient>
    <linearGradient
   id="linearGradient67">
      <stop
   id="stop70"
   style="stop-color:#d7ffff;stop-opacity:0.898039;"
   offset="0.000000" />
      <stop
   id="stop69"
   style="stop-color:#2ea6b9;stop-opacity:0.952941;"
   offset="1.000000" />
    </linearGradient>
    <linearGradient
   xlink:href="#linearGradient174"
   y2="0.000000"
   x2="1.000000"
   y1="0.000000"
   x1="0.000000"
   id="linearGradient57" />
    <defs
   id="defs4">
      <radialGradient
   xlink:href="#linearGradient67"
   gradientUnits="userSpaceOnUse"
   fy="1973.579956"
   fx="869.603027"
   r="2106.649902"
   cy="1973.579956"
   cx="869.603027"
   id="1" />
    </defs>
    <defs
   id="defs11">
      <linearGradient
   xlink:href="#linearGradient178"
   gradientUnits="userSpaceOnUse"
   y2="34.100899"
   x2="375.686005"
   y1="119.147003"
   x1="255.848007"
   id="2" />
    </defs>
    <defs
   id="defs16">
      <linearGradient
   xlink:href="#linearGradient57"
   gradientUnits="userSpaceOnUse"
   y2="30.864300"
   x2="356.480988"
   y1="109.384003"
   x1="275.053009"
   id="3" />
    </defs>
    <radialGradient
   spreadMethod="pad"
   gradientTransform="matrix(0.945877,0,0,1.05722,0.264368,0.249996)"
   gradientUnits="objectBoundingBox"
   id="radialGradient88"
   xlink:href="#linearGradient168"
   fy="1.05578e-10"
   fx="3.03981e-14"
   r="0.773346"
   cy="1.05578e-10"
   cx="3.03981e-14" />
    <linearGradient
   spreadMethod="pad"
   gradientTransform="translate(-2.65767,-0.201241)"
   gradientUnits="objectBoundingBox"
   id="linearGradient89"
   xlink:href="#linearGradient67"
   y2="0.623116"
   x2="3.85147"
   y1="1.14655"
   x1="2.69643" />
    <linearGradient
   spreadMethod="pad"
   gradientTransform="matrix(1.27999,-1.2809,0.380134,0.400852,0.419179,0.455777)"
   gradientUnits="objectBoundingBox"
   y2="0.138341"
   x2="0.0148676"
   y1="-0.546712"
   x1="-0.01654"
   id="linearGradient1856"
   xlink:href="#linearGradient96" />
    <radialGradient
   spreadMethod="pad"
   gradientTransform="matrix(1.6481,-1.64928,0.295229,0.311319,0.00343702,0.809113)"
   gradientUnits="objectBoundingBox"
   r="0.694199"
   fy="-1.48419e-06"
   fx="-5.51513e-06"
   cy="-1.48419e-06"
   cx="-5.51513e-06"
   id="radialGradient1860"
   xlink:href="#linearGradient1857" />
    <radialGradient
   spreadMethod="pad"
   gradientTransform="matrix(0.8189,0,0,1.22115,0.417826,0.462637)"
   gradientUnits="objectBoundingBox"
   r="0.242318"
   fy="5.68149e-08"
   fx="6.46047e-09"
   cy="5.68149e-08"
   cx="6.46047e-09"
   id="radialGradient95"
   xlink:href="#linearGradient96" />
    <linearGradient
   spreadMethod="pad"
   gradientTransform="matrix(1.27999,-1.2809,0.380134,0.400852,0.419179,0.455777)"
   gradientUnits="objectBoundingBox"
   id="linearGradient123"
   xlink:href="#linearGradient120"
   y2="0.138341"
   x2="0.0148676"
   y1="-0.546712"
   x1="-0.01654" />
    <linearGradient
   spreadMethod="pad"
   gradientTransform="matrix(1.27999,-1.2809,0.380134,0.400852,0.419179,0.455777)"
   gradientUnits="objectBoundingBox"
   id="linearGradient127"
   xlink:href="#linearGradient124"
   y2="0.138341"
   x2="0.0148676"
   y1="-0.546712"
   x1="-0.01654" />
  </defs>
  
  <path
   sodipodi:type="arc"
   style="opacity:0.5;fill:url(#radialGradient7892);fill-opacity:1;fill-rule:nonzero;stroke:#cccccc;stroke-width:0.1;stroke-linecap:round;stroke-linejoin:round;stroke-miterlimit:4;stroke-dasharray:none;stroke-opacity:0.5024155"
   id="path7884"
   sodipodi:cx="295.97623"
   sodipodi:cy="489.38644"
   sodipodi:rx="229.55252"
   sodipodi:ry="36.142311"
   d="M 525.52875,489.38644 A 229.55252,36.142311 0 1 1 66.423706,489.38644 A 229.55252,36.142311 0 1 1 525.52875,489.38644 z"
   transform="matrix(1.1574723,-0.2094545,7.3190456e-2,1.6624945,-132.11726,-333.01654)"
   inkscape:transform-center-x="-77.336865"
   inkscape:transform-center-y="-11.074613"
   inkscape:export-filename="D:\workspace_tn5250j\g7832-16.png"
   inkscape:export-xdpi="8.6000004"
   inkscape:export-ydpi="8.6000004" /><path
   sodipodi:nodetypes="cszsccszscc"
   id="path453"
   d="M 431.49122,59.465621 C 431.32393,54.914559 422.76944,39.046759 404.97177,42.994963 C 364.12542,50.217432 286.71265,68.713376 236.51642,78.312707 C 191.62913,86.831354 109.23771,103.41033 69.393208,113.66453 C 51.115608,118.27282 33.715468,136.91824 39.470818,141.5579 L 40.179788,415.55569 C 45.249748,425.07869 47.737298,434.90985 63.974098,434.69062 C 104.2865,430.16747 193.27826,409.87195 231.15543,401.7311 C 274.35219,392.51306 366.4931,374.41631 405.34625,364.44541 C 430.48004,356.82966 421.24722,361.72846 429.99954,343.59925 C 429.99954,343.59925 431.1953,73.086336 431.49122,59.465621 z"
   style="font-size:12px;fill:url(#linearGradient454);fill-opacity:1;stroke:#000027;stroke-width:9.54665565000000170;stroke-linecap:round;stroke-linejoin:round;stroke-opacity:0.99215697999999997"
   inkscape:export-filename="D:\workspace_tn5250j\g7831-48.png"
   inkscape:export-xdpi="32.259998"
   inkscape:export-ydpi="32.259998" />
  <path
   sodipodi:nodetypes="cszsccszscc"
   id="path97"
   d="M 453.93122,80.295621 C 453.76393,75.744559 445.20944,59.876759 427.41177,63.824963 C 386.56542,71.047432 309.15265,89.543376 258.95642,99.142707 C 214.06913,107.66135 131.67771,124.24033 91.833208,134.49453 C 73.555608,139.10282 56.155468,157.74824 61.910818,162.3879 L 62.619788,436.38569 C 67.689748,445.90869 70.177298,455.73985 86.414098,455.52062 C 126.7265,450.99747 215.71826,430.70195 253.59543,422.5611 C 296.79219,413.34306 388.9331,395.24631 427.78625,385.27541 C 452.92004,377.65966 443.68722,382.55846 452.43954,364.42925 C 452.43954,364.42925 453.6353,93.916336 453.93122,80.295621 z"
   style="font-size:12px;fill:url(#linearGradient7876);fill-opacity:1;stroke:#11212a;stroke-width:9.54665564999999990;stroke-linecap:round;stroke-linejoin:round;stroke-opacity:1"
   inkscape:export-filename="D:\workspace_tn5250j\g7831-48.png"
   inkscape:export-xdpi="32.259998"
   inkscape:export-ydpi="32.259998" />
  <path
   sodipodi:nodetypes="cszsccszscc"
   id="path44"
   d="M 422.9276,108.24401 C 422.78532,104.47408 414.48567,94.01447 399.49481,97.335496 C 365.08967,103.43399 299.88583,118.97505 257.60544,127.06899 C 219.79675,134.25269 149.7172,148.3566 116.15689,156.96396 C 100.76196,160.8332 86.791708,176.19226 91.641178,180.01987 L 92.240688,412.62609 C 94.909898,425.31011 107.37406,427.05335 120.3838,422.80079 C 153.8603,415.98342 221.28309,401.87622 253.18685,395.02524 C 289.57128,387.26687 367.18163,372.01509 399.90697,363.64523 C 421.07637,357.26513 413.30049,361.34959 420.66764,346.30553 C 420.66764,346.30553 422.68243,119.52914 422.9276,108.24401 z"
   style="font-size:12px;fill:url(#radialGradient89);fill-opacity:0.7;stroke:#1c5574;stroke-width:11.05214119;stroke-linecap:round;stroke-linejoin:round;stroke-opacity:0.98999999"
   inkscape:export-filename="D:\workspace_tn5250j\g7831-48.png"
   inkscape:export-xdpi="32.259998"
   inkscape:export-ydpi="32.259998" />
  
  
<path
   sodipodi:nodetypes="cszsccszscc"
   id="path2452"
   d="M 422.9276,108.24401 C 422.78532,104.47408 414.48567,94.014467 399.49481,97.335497 C 365.08967,103.43399 299.88583,118.97505 257.60544,127.06899 C 219.79675,134.25269 149.7172,148.3566 116.15689,156.96396 C 100.76196,160.8332 86.791708,176.19226 91.641178,180.01987 L 92.240688,412.62609 C 94.909898,425.31011 107.37406,427.05335 120.3838,422.80079 C 153.8603,415.98342 221.28309,401.87622 253.18685,395.02524 C 289.57128,387.26687 367.18163,372.01509 399.90697,363.64523 C 421.07637,357.26513 413.30049,361.34959 420.66764,346.30553 C 420.66764,346.30553 422.68243,119.52914 422.9276,108.24401 z"
   style="font-size:12px;opacity:1;fill:url(#linearGradient6595);fill-opacity:1;stroke:url(#linearGradient6603);stroke-width:11.05100016;stroke-linecap:round;stroke-linejoin:round;stroke-opacity:1;stroke-miterlimit:4;stroke-dasharray:none"
   inkscape:export-filename="D:\workspace_tn5250j\g7831-48.png"
   inkscape:export-xdpi="32.259998"
   inkscape:export-ydpi="32.259998" /><path
   d="M 55.280811,124.92793 A 1.5,1.5 0 1 1 52.280811,124.92793 A 1.5,1.5 0 1 1 55.280811,124.92793 z"
   sodipodi:ry="1.5"
   sodipodi:rx="1.5"
   sodipodi:cy="124.92793"
   sodipodi:cx="53.780811"
   style="fill:#000000;stroke:none"
   id="path3314"
   sodipodi:type="arc"
   inkscape:export-filename="D:\workspace_tn5250j\g7831-48.png"
   inkscape:export-xdpi="32.259998"
   inkscape:export-ydpi="32.259998" /><path
   d="M 67.880577,113.4736 A 1.5,1.5 0 1 1 64.880577,113.4736 A 1.5,1.5 0 1 1 67.880577,113.4736 z"
   sodipodi:ry="1.5"
   sodipodi:rx="1.5"
   sodipodi:cy="113.4736"
   sodipodi:cx="66.380577"
   style="fill:#000000;stroke:none"
   id="path3332"
   sodipodi:type="arc"
   inkscape:export-filename="D:\workspace_tn5250j\g7831-48.png"
   inkscape:export-xdpi="32.259998"
   inkscape:export-ydpi="32.259998" /><path
   sodipodi:type="arc"
   style="opacity:0.90000000000000002;fill:none;fill-opacity:1;fill-rule:nonzero;stroke:url(#linearGradient6905);stroke-width:0.52674319999999997;stroke-linecap:round;stroke-linejoin:round;stroke-miterlimit:4;stroke-dasharray:none;stroke-opacity:1;filter:url(#filter6865)"
   id="path6817"
   sodipodi:cx="420.64465"
   sodipodi:cy="377.38907"
   sodipodi:rx="8.727067"
   sodipodi:ry="10.472481"
   d="M 429.37172,377.38907 A 8.727067,10.472481 0 1 1 411.91759,377.38907 A 8.727067,10.472481 0 1 1 429.37172,377.38907 z"
   transform="matrix(0.9903781,0.7086641,-0.718204,0.953178,271.01306,-280.3979)"
   inkscape:transform-center-y="1.3753715"
   inkscape:transform-center-x="1.0363407"
   inkscape:export-filename="D:\workspace_tn5250j\g7831-48.png"
   inkscape:export-xdpi="32.259998"
   inkscape:export-ydpi="32.259998" /><path
   sodipodi:type="arc"
   style="opacity:1;fill:#8c8c8c;fill-opacity:1;fill-rule:nonzero;stroke:url(#linearGradient6807);stroke-width:2.57574054999999990;stroke-linecap:round;stroke-linejoin:round;stroke-miterlimit:4;stroke-dasharray:none;stroke-opacity:1"
   id="path6794"
   sodipodi:cx="420.64465"
   sodipodi:cy="377.38907"
   sodipodi:rx="8.727067"
   sodipodi:ry="10.472481"
   d="M 429.37172,377.38907 A 8.727067,10.472481 0 1 1 411.91759,377.38907 A 8.727067,10.472481 0 1 1 429.37172,377.38907 z"
   transform="matrix(0.8707178,0.6393431,-0.6314285,0.8599389,288.54937,-216.03929)"
   inkscape:transform-center-y="1.2408391"
   inkscape:transform-center-x="0.91112234"
   inkscape:export-filename="D:\workspace_tn5250j\g7831-48.png"
   inkscape:export-xdpi="32.259998"
   inkscape:export-ydpi="32.259998" /><path
   sodipodi:type="arc"
   style="opacity:0.5;fill:none;fill-opacity:1;fill-rule:nonzero;stroke:#0a0a0a;stroke-width:0.26337158999999999;stroke-linecap:round;stroke-linejoin:round;stroke-miterlimit:4;stroke-dasharray:none;stroke-opacity:1"
   id="path6907"
   sodipodi:cx="420.64465"
   sodipodi:cy="377.38907"
   sodipodi:rx="8.727067"
   sodipodi:ry="10.472481"
   d="M 429.37172,377.38907 A 8.727067,10.472481 0 1 1 411.91759,377.38907 A 8.727067,10.472481 0 1 1 429.37172,377.38907 z"
   transform="matrix(0.9903782,0.708664,-0.7182039,0.9531781,271.01298,-280.3979)"
   inkscape:transform-center-y="1.3753715"
   inkscape:transform-center-x="1.0363407"
   inkscape:export-filename="D:\workspace_tn5250j\g7831-48.png"
   inkscape:export-xdpi="32.259998"
   inkscape:export-ydpi="32.259998" /><path
   sodipodi:type="arc"
   style="opacity:0.75;fill:none;fill-opacity:1;fill-rule:nonzero;stroke:#000000;stroke-width:0.34359276;stroke-linecap:round;stroke-linejoin:round;stroke-miterlimit:4;stroke-dasharray:none;stroke-opacity:1;filter:url(#filter6871)"
   id="path6869"
   sodipodi:cx="420.64465"
   sodipodi:cy="377.38907"
   sodipodi:rx="8.727067"
   sodipodi:ry="10.472481"
   d="M 429.37172,377.38907 A 8.727067,10.472481 0 1 1 411.91759,377.38907 A 8.727067,10.472481 0 1 1 429.37172,377.38907 z"
   transform="matrix(0.7459527,0.5585295,-0.5409511,0.7512419,306.89643,-141.05379)"
   inkscape:transform-center-y="1.0839826"
   inkscape:transform-center-x="0.78057902"
   inkscape:export-filename="D:\workspace_tn5250j\g7831-48.png"
   inkscape:export-xdpi="32.259998"
   inkscape:export-ydpi="32.259998" /><path
   style="fill:#ffffff;fill-opacity:1;stroke:#cccccc;stroke-width:0.49699399;stroke-linejoin:round;stroke-miterlimit:4;stroke-opacity:0.5024155"
   d="M 188.90625,155 C 185.24207,159.21014 188.32657,166.55407 187.3125,171.96875 C 188.27153,176.07342 184.37425,186.79539 191.67825,184.94328 C 241.99383,174.6601 292.30942,164.37693 342.625,154.09375 C 346.28918,149.88361 343.20468,142.53968 344.21875,137.125 C 343.25972,133.02033 347.157,122.29836 339.853,124.15047 C 289.53742,134.43365 239.22183,144.71682 188.90625,155 z"
   id="path8210"
   inkscape:export-filename="D:\workspace_tn5250j\g7831-48.png"
   inkscape:export-xdpi="32.259998"
   inkscape:export-ydpi="32.259998" /><path
   style="fill:#00ff09;fill-opacity:1;stroke:#008600;stroke-width:0.43165219;stroke-linejoin:round;stroke-miterlimit:4;stroke-opacity:0.5"
   d="M 109.5625,256.6875 C 105.89832,260.89764 108.98282,268.24157 107.96875,273.65625 C 107.27194,281.46149 116.93296,275.6994 121.15219,275.70347 C 176.37229,264.4169 231.5924,253.13032 286.8125,241.84375 C 290.47668,237.63361 287.39218,230.28968 288.40625,224.875 C 289.07315,217.10596 279.43087,222.87123 275.22244,222.85719 C 220.00246,234.13396 164.78248,245.41073 109.5625,256.6875 z"
   id="path8212"
   inkscape:export-filename="D:\workspace_tn5250j\g7831-48.png"
   inkscape:export-xdpi="32.259998"
   inkscape:export-ydpi="32.259998" /><path
   style="fill:#ffffff;fill-opacity:1;stroke:#cccccc;stroke-width:0.34886053;stroke-linejoin:round;stroke-miterlimit:4;stroke-opacity:0.5024155"
   d="M 109.875,226.58818 C 107.17919,229.95334 107.2104,238.51242 109.92812,241.62035 C 148.69817,234.50618 187.51599,225.8991 226.30438,218.21165 C 246.67696,213.77308 267.50109,210.36506 287.59243,205.28463 C 288.37288,201.32205 290.34561,192.88781 286.09375,190.61943 C 227.34934,202.55894 168.61492,214.60703 109.875,226.58818 z"
   id="path8214"
   inkscape:export-filename="D:\workspace_tn5250j\g7831-48.png"
   inkscape:export-xdpi="32.259998"
   inkscape:export-ydpi="32.259998" /><path
   style="fill:#ffffff;fill-opacity:1;stroke:#cccccc;stroke-width:0.26376656;stroke-linejoin:round;stroke-miterlimit:4;stroke-opacity:0.5024155"
   d="M 306.375,186.30693 C 303.63211,189.7759 303.78115,198.43501 306.42812,201.6516 C 339.36764,195.716 372.35473,188.28513 405.3125,181.77568 C 408.05539,178.3067 407.90635,169.64759 405.25938,166.431 C 372.33217,172.36461 339.31715,179.80031 306.375,186.30693 z"
   id="path8216"
   inkscape:export-filename="D:\workspace_tn5250j\g7831-48.png"
   inkscape:export-xdpi="32.259998"
   inkscape:export-ydpi="32.259998" /><path
   style="fill:#00ff09;fill-opacity:1;stroke:#008600;stroke-width:0.43165219;stroke-linejoin:round;stroke-miterlimit:4;stroke-opacity:0.5"
   d="M 109.5625,298.9375 C 105.89832,303.14764 108.98282,310.49157 107.96875,315.90625 C 107.30185,323.67529 116.94413,317.91002 121.15256,317.92406 C 176.37254,306.64729 231.59252,295.37052 286.8125,284.09375 C 290.47668,279.88361 287.39218,272.53968 288.40625,267.125 C 289.07315,259.35596 279.43087,265.12123 275.22244,265.10719 C 220.00246,276.38396 164.78248,287.66073 109.5625,298.9375 z"
   id="path8218"
   inkscape:export-filename="D:\workspace_tn5250j\g7831-48.png"
   inkscape:export-xdpi="32.259998"
   inkscape:export-ydpi="32.259998" /><path
   style="fill:#00ff09;fill-opacity:1;stroke:#008600;stroke-width:0.43165219;stroke-linejoin:round;stroke-miterlimit:4;stroke-opacity:0.5"
   d="M 109.5625,341.3125 C 105.89832,345.52264 108.98282,352.86657 107.96875,358.28125 C 107.30194,366.05072 116.94393,360.28405 121.15219,360.29722 C 176.37229,349.01065 231.5924,337.72407 286.8125,326.4375 C 290.47668,322.22736 287.39218,314.88343 288.40625,309.46875 C 289.07306,301.69928 279.43107,307.46595 275.22281,307.45278 C 220.00271,318.73935 164.7826,330.02593 109.5625,341.3125 z"
   id="path8220"
   inkscape:export-filename="D:\workspace_tn5250j\g7831-48.png"
   inkscape:export-xdpi="32.259998"
   inkscape:export-ydpi="32.259998" /><path
   style="fill:#00ff09;fill-opacity:1;stroke:#008600;stroke-width:0.43165219;stroke-linejoin:round;stroke-miterlimit:4;stroke-opacity:0.5"
   d="M 109.5625,383.53125 C 105.89832,387.74139 108.98282,395.08532 107.96875,400.5 C 107.30185,408.26904 116.94413,402.50377 121.15256,402.51781 C 176.37254,391.24104 231.59252,379.96427 286.8125,368.6875 C 290.47668,364.47736 287.39218,357.13343 288.40625,351.71875 C 289.07315,343.94971 279.43087,349.71498 275.22244,349.70094 C 220.00246,360.97771 164.78248,372.25448 109.5625,383.53125 z"
   id="path8222"
   inkscape:export-filename="D:\workspace_tn5250j\g7831-48.png"
   inkscape:export-xdpi="32.259998"
   inkscape:export-ydpi="32.259998" /><path
   style="fill:#00ff09;fill-opacity:1;stroke:#008600;stroke-width:0.32491654;stroke-linejoin:round;stroke-miterlimit:4;stroke-opacity:0.5"
   d="M 306.34375,258.5625 C 302.67957,262.77264 305.76407,270.11657 304.75,275.53125 C 303.73278,283.72184 313.58829,278.02124 317.93368,277.92342 C 347.19081,271.66744 376.89754,266.43728 405.87368,259.5402 C 407.76835,253.84579 406.087,246.74175 406.65625,240.53125 C 403.18858,235.94904 395.60378,241.63692 390.53327,241.36451 C 362.4701,247.09718 334.40692,252.82984 306.34375,258.5625 z"
   id="path8224"
   inkscape:export-filename="D:\workspace_tn5250j\g7831-48.png"
   inkscape:export-xdpi="32.259998"
   inkscape:export-ydpi="32.259998" /><path
   style="fill:#00ff09;fill-opacity:1;stroke:#008600;stroke-width:0.32491654;stroke-linejoin:round;stroke-miterlimit:4;stroke-opacity:0.5"
   d="M 306.34375,300.90625 C 302.67957,305.11639 305.76407,312.46032 304.75,317.875 C 303.73278,326.06559 313.58829,320.36499 317.93368,320.26717 C 347.19081,314.01119 376.89754,308.78103 405.87368,301.88395 C 407.76835,296.18954 406.087,289.0855 406.65625,282.875 C 403.18858,278.29279 395.60378,283.98067 390.53327,283.70826 C 362.4701,289.44093 334.40692,295.17359 306.34375,300.90625 z"
   id="path8226"
   inkscape:export-filename="D:\workspace_tn5250j\g7831-48.png"
   inkscape:export-xdpi="32.259998"
   inkscape:export-ydpi="32.259998" /><path
   style="fill:#00ff09;fill-opacity:1;stroke:#008600;stroke-width:0.32491654;stroke-linejoin:round;stroke-miterlimit:4;stroke-opacity:0.5"
   d="M 306.34375,343.15625 C 302.67957,347.36639 305.76407,354.71032 304.75,360.125 C 303.73278,368.31559 313.58829,362.61499 317.93368,362.51717 C 347.19081,356.26119 376.89754,351.03103 405.87368,344.13395 C 407.76835,338.43954 406.087,331.3355 406.65625,325.125 C 403.18858,320.54279 395.60378,326.23067 390.53327,325.95826 C 362.4701,331.69093 334.40692,337.42359 306.34375,343.15625 z"
   id="path8228"
   inkscape:export-filename="D:\workspace_tn5250j\g7831-48.png"
   inkscape:export-xdpi="32.259998"
   inkscape:export-ydpi="32.259998" /></svg>