/* XPM */
static char *tn5250j_32x32[] = {
/* columns rows colors chars-per-pixel */
"32 32 217 2 ",
"   c #171B1F",
".  c #191B1D",
"X  c #172319",
"o  c #143A1C",
"O  c #060627",
"+  c #070728",
"@  c #0B0B2B",
"#  c #0B0E26",
"$  c #161D22",
"%  c #16192A",
"&  c #191E33",
"*  c #131330",
"=  c #15242D",
"-  c #1A242B",
";  c #162C2D",
":  c #182526",
">  c #142532",
",  c #182336",
"<  c #152C34",
"1  c #182939",
"2  c #153632",
"3  c #143839",
"4  c #25282A",
"5  c #212D34",
"6  c #272836",
"7  c #26333A",
"8  c #29363E",
"9  c #2C393F",
"0  c #2E3233",
"q  c #32333C",
"w  c #36393B",
"e  c #343739",
"r  c #124314",
"t  c #0F5F15",
"y  c #115718",
"u  c #0E6616",
"i  c #0D741C",
"p  c #0B7A18",
"a  c #0D6D0E",
"s  c #114C25",
"d  c #12432C",
"f  c #105B26",
"g  c #115429",
"h  c #134C3A",
"j  c #125438",
"k  c #0F5B28",
"l  c #0E6A2B",
"z  c #0D6723",
"x  c #0E7A2B",
"c  c #0F6735",
"v  c #0E7536",
"b  c #106336",
"n  c #172D44",
"m  c #18264B",
"M  c #17294A",
"N  c #15334C",
"B  c #173744",
"V  c #182952",
"C  c #172C59",
"Z  c #18345B",
"A  c #163856",
"S  c #2E3A41",
"D  c #263D4B",
"F  c #293F4C",
"G  c #203643",
"H  c #333D43",
"J  c #3A3D42",
"K  c #353540",
"L  c #192F62",
"P  c #193164",
"I  c #19336C",
"U  c #193865",
"Y  c #1A3670",
"T  c #1B3874",
"R  c #1D3E7D",
"E  c #134546",
"W  c #13554A",
"Q  c #144857",
"!  c #15565A",
"~  c #2C424F",
"^  c #354249",
"/  c #3B454B",
"(  c #3A4247",
")  c #2C4658",
"_  c #324955",
"`  c #106445",
"'  c #107440",
"]  c #146356",
"[  c #1B416B",
"{  c #1E407F",
"}  c #34526A",
"|  c #25487C",
" . c #2F567A",
".. c #3A607E",
"X. c #434446",
"o. c #464648",
"O. c #49494A",
"+. c #424C52",
"@. c #4D565B",
"#. c #485057",
"$. c #51595E",
"%. c #445963",
"&. c #555D62",
"*. c #596166",
"=. c #5C6569",
"-. c #51636D",
";. c #55656F",
":. c #62696D",
">. c #656D71",
",. c #707679",
"<. c #72797D",
"1. c #69767C",
"2. c #09840C",
"3. c #079B0C",
"4. c #0A8919",
"5. c #099E19",
"6. c #04A608",
"7. c #04B60A",
"8. c #05AC13",
"9. c #07A217",
"0. c #05B616",
"q. c #0B8727",
"w. c #099925",
"e. c #0D8634",
"r. c #0C9133",
"t. c #0AA62B",
"y. c #08AA24",
"u. c #09AE29",
"i. c #01C502",
"p. c #00CB02",
"a. c #04C80C",
"s. c #00D402",
"d. c #00DC03",
"f. c #02D40A",
"g. c #04C314",
"h. c #04C915",
"j. c #05C61B",
"k. c #03D610",
"l. c #00E405",
"z. c #01E609",
"x. c #00EC05",
"c. c #00F306",
"v. c #00F509",
"b. c #0E8642",
"n. c #1E4383",
"m. c #1E4688",
"M. c #1F488A",
"N. c #214584",
"B. c #244B83",
"V. c #204788",
"C. c #214B8C",
"Z. c #2B4C88",
"A. c #304D84",
"S. c #2A5385",
"D. c #375686",
"F. c #235090",
"G. c #3A6183",
"H. c #3D6688",
"J. c #3E6198",
"K. c #436A8B",
"L. c #4A6494",
"P. c #46669A",
"I. c #526B98",
"U. c #4C7290",
"Y. c #5C769A",
"T. c #757D82",
"R. c #7B7F81",
"E. c #62769E",
"W. c #6E7B81",
"Q. c #5773A2",
"!. c #6379A3",
"~. c #7D8386",
"^. c #738E9F",
"/. c #68879B",
"(. c #6882AB",
"). c #7389AF",
"_. c #7187AC",
"`. c #7A94A2",
"'. c #6B88B1",
"]. c #7B8EB0",
"[. c #7992B8",
"{. c #8D9092",
"}. c #959696",
"|. c #9B9B9B",
" X c #96999A",
".X c #868A8C",
"XX c #9A9EA0",
"oX c #8D9CBA",
"OX c #8698B8",
"+X c #849AA8",
"@X c #9AA9B4",
"#X c #95A1A8",
"$X c #A4A4A4",
"%X c #ABACAC",
"&X c #A9B0B4",
"*X c #B3B4B4",
"=X c #BBBCBC",
"-X c #B4B8BA",
";X c #97A9C6",
":X c #A5B2C8",
">X c #B7BECA",
",X c #BEC0C1",
"<X c #BBC4D4",
"1X c #BDC9DC",
"2X c #C4C4C4",
"3X c #C9C9C9",
"4X c #CBD2DE",
"5X c #D8DCE4",
"6X c #DEE1E6",
"7X c #E6E6E7",
"8X c #E5E8EE",
"9X c #EDEDED",
"0X c #E0E4EC",
"qX c #F2F3F4",
"wX c #FBFBFC",
"eX c #E6EAF0",
"rX c None",
/* pixels */
"rXrXrXrXrXrXrXrXrXrXrXrXrXrXrXrXrXrXrXrXrXrXrXrXrXrX@ @ @ @ rXrX",
"rXrXrXrXrXrXrXrXrXrXrXrXrXrXrXrXrXrXrXrXrX+ @ * 6 K o.O.X.& rXrX",
"rXrXrXrXrXrXrXrXrXrXrXrXrXrXrXrX+ @ @ 6 9 X.O.O.H H 9 H @.T.@.8 ",
"rXrXrXrXrXrXrXrXrXrXrX+ @ @ & K J O.o.J H 9 ^ +.,.XX,X2X2X2X2XH ",
"rXrXrXrXrXrXrX@ # * 6 J o.O.( ( H H _ 1. X=X2X,X@X`.H. .D.@X,X^ ",
"rXrX@ @ @ 6 K X.O.( J H S ( =.{.-X3X,X&X`.U.S.S.m.M.M.F.M.H.,X^ ",
"rX@ K O.o.J H S ^ @.~.&X2X3X-X+XY.D.B.B.M.P.'.J.M.F.F.C.M.G.=X^ ",
"@ o.O.H / ,.XX2X3X=X@X/.H.| B.m.J.'.;X<X6X9X7X_.M.M.V.V.m...-X^ ",
"@ O.9 |.3X,X`.K.S.B.n.S.'.;X1X8XwXqX9X9X7X7X5XQ.m.m.m.n.n.H.-X( ",
"@ ( =.3X+X| n.m.M.M.F.[.wXwXwXqX9X0X3X;X).P.B.n.n.n.N.L.R D.*XH ",
"@ w >.2X| B.V.V.m.m.m.OXqX4X:X].I.Z.N.N.{ N.L.).;X4XqXqXR G.*XH ",
"* w :.,XT N.N.N.n.n.n.Z.Z.n.{ n.n.D.!.{ ].qXwX5X:X+XI.N.Y G.*XS ",
"@ w :.=XU N.{ { n.{ R R D.!.oX<X8XwX5XA.L.I.{ T T T T T I ..%XH ",
"@ w :.=XA R R A.E.OX<X0XwX8X<XoXY.A.Y Y T T I Y Y Y I I P ..%XS ",
"@ e =.=XN L.5XwX8X<XoXE.D.[ ] b.t.h.s.Q I I I I I P P P L } %XH ",
"@ e =.-Xn D.E. .Y ! b.t.j.d.d.s.i.8.q.U P P P P Q ` r.w.N } %XS ",
"# e *.*X1 ! t.j.l.x.d.s.0.q.c W U L L L W r.u.k.z.d.p.7.N ) %XS ",
"@ 0 *.*X1 ' d.0.w.v W A Z P Z ` e.y.h.E w.c.d.8.x b B V M ) $X8 ",
"@ 0 *.*X> L A Z C Z W e.y.h.z.l.d.p.9.N E E V V V E b q.1 ~ $XS ",
"+ 5 *.&X> A v t.h.l.l.d.f.8.4.c E M V M B b q.0.f.d.s.i.3 D $X8 ",
"+ 4 *.%X> c l.d.8.4.l j N m m n j q.5.B w.c.z.f.9.p k 2 > A |.9 ",
"+ 0 *.%X> B j n M m n j x 9.g.d.d.s.i.2 g z d , , , 2 f > D |.9 ",
"# 4 $.%X> n h x w.h.z.l.d.p.6.4.z d > , , 2 f 4.8.a.s.p.; F |.8 ",
"@ 4 $.%X> z x.x.d.7.4.u s ; & & ; g i ; 4.v.x.l.i.3.p y : _ |.8 ",
"+ 4 $.$X< d i s ; , & - s p 3.g.s.p.p.o u 4.t o   $ = = > <.|.7 ",
"+ 4 $.$X= & $ s i 3.a.z.l.d.p.6.2.u o X   $ = = < F &.T.,.~.:.5 ",
"+ 4 #.$X, t v.v.x.d.7.2.u o X . $ : > > G #.1.}. X.X:.+.( 9 5 rX",
"O 4 #.$X= r 3.a r X . $ : - = 1 _ ;..X X{.<.@.H 5 5 : rXrXrXrXrX",
"O 4 @.$X< . . $ = = < ~ -.~.|.}.R.*.( 7 5 - $ rXrXrXrXrXrXrXrXrX",
"rX# #.|.<.B ~ %.T.|. XT.=./ 7 5 5 $ . rXrXrXrXrXrXrXrXrXrXrXrXrX",
"rXrX8 |.|. X~.*./ 7 5 5 $ rXrXrXrXrXrXrXrXrXrXrXrXrXrXrXrXrXrXrX",
"rXrXrX7 8 5 5 rXrXrXrXrXrXrXrXrXrXrXrXrXrXrXrXrXrXrXrXrXrXrXrXrX"
};
